<svg width="364" height="364" viewBox="0 0 364 364" fill="none" xmlns="http://www.w3.org/2000/svg">
<rect width="364" height="364" fill="transparent"/>
<rect x="57" y="57" width="250" height="250" fill="transparent"/>
<path d="M174.195 188.3H194.109V181.659H191.922C191.933 182.267 191.817 182.87 191.581 183.43C191.346 183.99 190.995 184.495 190.553 184.912C190.11 185.329 189.586 185.648 189.012 185.85C188.439 186.051 187.83 186.131 187.224 186.083H184.157V176.141H187.497V173.943H174.195V176.141H177.535V186.064H174.186L174.195 188.3Z" fill="#010101"/>
<path d="M203.681 188.31H211.435L218.008 176.151H221.299V173.943H211.386V176.151H214.248L209.462 185.009L204.608 176.151H208.085V173.943H193.699V176.151H196.991L203.681 188.31Z" fill="#010101"/>
<path d="M134.535 173.943H120.148V176.151H123.44L130.13 188.31H137.884L144.457 176.151H147.758V173.943H137.836V176.151H140.707L135.912 185.009L131.058 176.151H134.544L134.535 173.943Z" fill="#010101"/>
<path d="M149.682 181.18C149.682 185.409 153.09 188.769 159.927 188.769C166.763 188.769 170.123 185.409 170.123 181.18C170.123 176.951 166.548 173.68 159.888 173.68C153.227 173.68 149.682 176.971 149.682 181.18ZM163.443 181.18C163.394 183.788 162.32 186.513 159.81 186.464C157.3 186.415 156.313 183.729 156.352 181.053C156.391 178.377 157.729 175.877 160.005 175.916C162.28 175.955 163.492 178.407 163.443 181.18Z" fill="#010101"/>
<path d="M223.213 181.18C223.213 185.409 226.612 188.769 233.448 188.769C240.285 188.769 243.654 185.409 243.654 181.18C243.654 176.951 240.07 173.68 233.409 173.68C226.748 173.68 223.213 176.971 223.213 181.18ZM233.536 175.946C235.812 175.946 237.013 178.446 236.964 181.21C236.964 183.817 235.841 186.542 233.341 186.493C230.841 186.445 229.835 183.759 229.883 181.083C229.932 178.407 231.251 175.867 233.536 175.906V175.946Z" fill="#010101"/>
<path d="M249.701 135.473L241.37 143.804C250.812 158.414 254.513 176.002 251.759 193.179C249.005 210.355 239.991 225.905 226.455 236.831C212.918 247.758 195.817 253.288 178.446 252.355C161.075 251.423 144.664 244.095 132.375 231.782C120.085 219.47 112.788 203.045 111.888 185.672C110.988 168.3 116.55 151.209 127.502 137.693C138.453 124.177 154.02 115.192 171.202 112.471C188.383 109.749 205.964 113.483 220.557 122.952L228.888 114.621C212.039 102.946 191.433 97.9947 171.119 100.74C150.805 103.485 132.253 113.729 119.108 129.458C105.962 145.187 99.1753 165.263 100.08 185.742C100.985 206.22 109.516 225.62 123.997 240.128C138.478 254.637 157.862 263.204 178.339 264.147C198.816 265.09 218.905 258.341 234.658 245.225C250.412 232.11 260.69 213.576 263.474 193.268C266.257 172.959 261.344 152.344 249.701 135.473Z" fill="#010101"/>
<path d="M223.457 103.273V105.568C228.416 108.261 233.103 111.427 237.452 115.022L225.733 126.742C230.146 130.2 234.127 134.178 237.589 138.589L249.309 126.869C252.894 131.215 256.069 135.884 258.792 140.815H261.039V103.273H223.457Z" fill="#010101"/>
</svg>
